# xmcd
#
# Track frame offsets:
#	150
#	1575
#	20677
#	43285
#	54850
#	70087
#	85462
#	89065
#	105305
#	111482
#	130797
#	137665
#	146137
#	167845
#
# Disc length: 2381 seconds
#
# Revision: 0
# Processed by: cddbd v1.4PL0 Copyright (c) Steve Scherf et al.
# Submitted via: EasyCDDAExtractor 4.5.0.1
#
DISCID=c0094b0e
DTITLE=Doug Clark and the Hot Nuts - A Greatest Hits Collection
DYEAR=1900
DGENRE=R&B
TTITLE0=Intro
TTITLE1=Toast
TTITLE2=Hot Nuts I
TTITLE3=Roly Poly
TTITLE4=Barnacle Bill
TTITLE5=Instrumental
TTITLE6=Old and Feeble
TTITLE7=Two Old Maids
TTITLE8=Ding-a Ling
TTITLE9=Limericks
TTITLE10=Lulu
TTITLE11=Big Wheel
TTITLE12=Hot Nuts II
TTITLE13=Baby, Let Me Bang Your Box
EXTD=
EXTT0=
EXTT1=
EXTT2=
EXTT3=
EXTT4=
EXTT5=
EXTT6=
EXTT7=
EXTT8=
EXTT9=
EXTT10=
EXTT11=
EXTT12=
EXTT13=
PLAYORDER=
